<?xml version="1.0" encoding="utf-8"?>
<!-- Generator: Adobe Illustrator 25.2.3, SVG Export Plug-In . SVG Version: 6.00 Build 0)  -->
<svg version="1.1"
	 id="svg2" inkscape:output_extension="org.inkscape.output.svg.inkscape" inkscape:version="0.48.1 r9760" sodipodi:docname="A3_Landscape.svg" sodipodi:version="0.32" xmlns:cc="http://creativecommons.org/ns#" xmlns:dc="http://purl.org/dc/elements/1.1/" xmlns:freecad="http://www.freecadweb.org/wiki/index.php?title=Svg_Namespace" xmlns:inkscape="http://www.inkscape.org/namespaces/inkscape" xmlns:rdf="http://www.w3.org/1999/02/22-rdf-syntax-ns#" xmlns:sodipodi="http://sodipodi.sourceforge.net/DTD/sodipodi-0.dtd" xmlns:svg="http://www.w3.org/2000/svg"
	 xmlns="http://www.w3.org/2000/svg" xmlns:xlink="http://www.w3.org/1999/xlink" x="0px" y="0px" viewBox="0 0 1190.6 841.9"
	 style="enable-background:new 0 0 1190.6 841.9;" xml:space="preserve">
<style type="text/css">
	.st0{fill:none;stroke:#000000;stroke-width:0.9921;stroke-miterlimit:17.0079;}
</style>
<defs>
	
		<inkscape:perspective  id="perspective3148" inkscape:persp3d-origin="32 : 21.333333 : 1" inkscape:vp_x="0 : 32 : 1" inkscape:vp_y="0 : 1000 : 0" inkscape:vp_z="64 : 32 : 1" sodipodi:type="inkscape:persp3d">
		</inkscape:perspective>
</defs>
<sodipodi:namedview  bordercolor="#666666" borderopacity="1.0" gridtolerance="10.0" guidetolerance="10.0" id="base" inkscape:current-layer="svg2" inkscape:document-units="mm" inkscape:pageopacity="0.0" inkscape:pageshadow="2" inkscape:window-height="757" inkscape:window-maximized="1" inkscape:window-width="1280" inkscape:window-x="0" inkscape:window-y="20" objecttolerance="10.0" pagecolor="#ffffff" showgrid="false">
	</sodipodi:namedview>
<g id="g452">
</g>
<g id="Ortho_0_0" transform="rotate(90,210,118.5) translate(210,118.5) scale(1.5,1.5)">
	<g transform="scale(1,-1)">
		<path class="st0" d="M300.3,407.1"/>
		<path class="st0" d="M290.1,407.1"/>
		<path class="st0" d="M289,407.1"/>
		<path class="st0" d="M283.7,407.1c0,6.4,5.2,11.5,11.5,11.5c6.4,0,11.5-5.2,11.5-11.5"/>
		<path class="st0" d="M284.1,407.1c0,6.1,5,11.1,11.1,11c6.1,0,11-5,11-11"/>
		<path class="st0" d="M290.1,106.6"/>
		<path class="st0" d="M289.4,106.6"/>
		<path class="st0" d="M300.9,106.6"/>
		<path class="st0" d="M289,106.6"/>
		<path class="st0" d="M301.4,106.6"/>
		<path class="st0" d="M306.7,106.6c0,6.4-5.2,11.5-11.5,11.5c-6.4,0-11.5-5.2-11.5-11.5"/>
		<path class="st0" d="M306.2,106.6c0,6.1-5,11.1-11.1,11c-6.1,0-11-5-11-11"/>
		<path class="st0" d="M-10.4,407.1"/>
		<path class="st0" d="M0.5,407.1"/>
		<path class="st0" d="M-11.1,407.1"/>
		<path class="st0" d="M0.9,407.1"/>
		<path class="st0" d="M-11.5,407.1"/>
		<path class="st0" d="M-16.8,407.1c0-6.4,5.2-11.5,11.5-11.5c6.4,0,11.5,5.2,11.5,11.5"/>
		<path class="st0" d="M-16.4,407.1c0-6.1,5-11.1,11.1-11c6.1,0,11,5,11,11"/>
		<path class="st0" d="M-10.4,106.6"/>
		<path class="st0" d="M0.9,106.6"/>
		<path class="st0" d="M6.2,106.6c0-6.4-5.2-11.5-11.5-11.5c-6.4,0-11.5,5.2-11.5,11.5"/>
		<path class="st0" d="M5.8,106.6c0-6.1-5-11.1-11.1-11c-6.1,0-11,5-11,11"/>
		<path class="st0" d="M283.7,106.6c0-6.4,5.2-11.5,11.5-11.5c6.4,0,11.5,5.2,11.5,11.5"/>
		<path class="st0" d="M-16.8,106.6c0,6.4,5.2,11.5,11.5,11.5c6.4,0,11.5-5.2,11.5-11.5"/>
		<path class="st0" d="M6.2,407.1c0,6.4-5.2,11.5-11.5,11.5c-6.4,0-11.5-5.2-11.5-11.5"/>
		<path class="st0" d="M306.7,407.1c0-6.4-5.2-11.5-11.5-11.5c-6.4,0-11.5,5.2-11.5,11.5"/>
		<path id="_x32_5" class="st0" d="M295.2,86.8H-5.3"/>
		<path id="_x32_6" class="st0" d="M315,407.1V106.6"/>
		<path id="_x32_7" class="st0" d="M-5.3,426.9h300.5"/>
		<path id="_x32_8" class="st0" d="M-25.1,106.6v300.5"/>
		<path class="st0" d="M-16.4,106.6c0,6.1,5,11.1,11.1,11c6.1,0,11-5,11-11"/>
		<path class="st0" d="M0.5,106.6"/>
		<path class="st0" d="M5.8,407.1c0,6.1-5,11.1-11.1,11c-6.1,0-11-5-11-11"/>
		<path class="st0" d="M-11.5,407.1"/>
		<path class="st0" d="M-11.1,407.1"/>
		<path class="st0" d="M-10.4,407.1"/>
		<path class="st0" d="M284.1,106.6c0-6.1,5-11.1,11.1-11c6.1,0,11,5,11,11"/>
		<path class="st0" d="M306.2,407.1c0-6.1-5-11.1-11.1-11c-6.1,0-11,5-11,11"/>
		<path class="st0" d="M-5.3,86.8c-11,0-19.8,8.9-19.8,19.8"/>
		<path class="st0" d="M315,106.6c0-11-8.9-19.8-19.8-19.8"/>
		<path class="st0" d="M-25.1,407.1c0,11,8.9,19.8,19.8,19.8"/>
		<path class="st0" d="M295.2,426.9c11,0,19.8-8.9,19.8-19.8"/>
	</g>
</g>
</svg>
