<?xml version="1.0" encoding="UTF-8" standalone="no"?>
<!-- Created with Inkscape (http://www.inkscape.org/) -->

<svg
   xmlns:dc="http://purl.org/dc/elements/1.1/"
   xmlns:cc="http://creativecommons.org/ns#"
   xmlns:rdf="http://www.w3.org/1999/02/22-rdf-syntax-ns#"
   xmlns:svg="http://www.w3.org/2000/svg"
   xmlns="http://www.w3.org/2000/svg"
   xmlns:sodipodi="http://sodipodi.sourceforge.net/DTD/sodipodi-0.dtd"
   xmlns:inkscape="http://www.inkscape.org/namespaces/inkscape"
   width="210mm"
   height="297mm"
   viewBox="0 0 210 297"
   version="1.1"
   id="svg11188"
   inkscape:version="0.92.5 (2060ec1f9f, 2020-04-08)"
   sodipodi:docname="wc37.svg">
  <defs
     id="defs11182" />
  <sodipodi:namedview
     id="base"
     pagecolor="#ffffff"
     bordercolor="#666666"
     borderopacity="1.0"
     inkscape:pageopacity="0.0"
     inkscape:pageshadow="2"
     inkscape:zoom="0.71"
     inkscape:cx="-120"
     inkscape:cy="802.42424"
     inkscape:document-units="mm"
     inkscape:current-layer="layer1"
     showgrid="false"
     inkscape:window-width="2488"
     inkscape:window-height="1016"
     inkscape:window-x="72"
     inkscape:window-y="27"
     inkscape:window-maximized="1" />
  <metadata
     id="metadata11185">
    <rdf:RDF>
      <cc:Work
         rdf:about="">
        <dc:format>image/svg+xml</dc:format>
        <dc:type
           rdf:resource="http://purl.org/dc/dcmitype/StillImage" />
        <dc:title></dc:title>
      </cc:Work>
    </rdf:RDF>
  </metadata>
  <g
     inkscape:label="Layer 1"
     inkscape:groupmode="layer"
     id="layer1">
    <path
       d="m 136.35102,130.0178 -0.06,0.91369 -0.17851,0.89817 -0.29422,0.86713 -0.40498,0.82127 -0.50871,0.76129 -0.60396,0.68827 -0.68827,0.60396 -0.76129,0.50871 -0.82127,0.40498 -0.86713,0.29422 -0.89817,0.17851 -0.91369,0.06"
       style="fill:none;stroke:#100f0d;stroke-width:0.34995556;stroke-linecap:round;stroke-linejoin:round;stroke-miterlimit:10;stroke-dasharray:none;stroke-opacity:1"
       id="path10512"
       inkscape:connector-curvature="0" />
    <path
       d="M 136.35102,24.017886 V 130.01773"
       style="fill:none;stroke:#100f0d;stroke-width:0.34995556;stroke-linecap:round;stroke-linejoin:round;stroke-miterlimit:10;stroke-dasharray:none;stroke-opacity:1"
       id="path10516"
       inkscape:connector-curvature="0" />
    <path
       d="M 16.351297,130.0178 V 24.017956"
       style="fill:none;stroke:#100f0d;stroke-width:0.34995556;stroke-linecap:round;stroke-linejoin:round;stroke-miterlimit:10;stroke-dasharray:none;stroke-opacity:1"
       id="path10520"
       inkscape:connector-curvature="0" />
    <path
       d="m 129.35096,17.01782 0.91369,0.05997 0.89817,0.178859 0.86713,0.294216 0.82127,0.404989 0.76129,0.508706 0.68827,0.603603 0.60395,0.688622 0.50871,0.761294 0.40499,0.821267 0.29422,0.866775 0.1785,0.898172 0.06,0.913694"
       style="fill:none;stroke:#100f0d;stroke-width:0.34995556;stroke-linecap:round;stroke-linejoin:round;stroke-miterlimit:10;stroke-dasharray:none;stroke-opacity:1"
       id="path10524"
       inkscape:connector-curvature="0" />
    <path
       d="m 23.351045,137.01789 -0.913695,-0.06 -0.898172,-0.1785 -0.866775,-0.29422 -0.821267,-0.40499 -0.761294,-0.5087 -0.688622,-0.60396 -0.603603,-0.68827 -0.508706,-0.76129 -0.404988,-0.82127 -0.294217,-0.86713 -0.178858,-0.89817 -0.05962,-0.91369"
       style="fill:none;stroke:#100f0d;stroke-width:0.34995556;stroke-linecap:round;stroke-linejoin:round;stroke-miterlimit:10;stroke-dasharray:none;stroke-opacity:1"
       id="path10528"
       inkscape:connector-curvature="0" />
    <path
       d="M 23.351045,17.01782 H 129.35088"
       style="fill:none;stroke:#100f0d;stroke-width:0.34995556;stroke-linecap:round;stroke-linejoin:round;stroke-miterlimit:10;stroke-dasharray:none;stroke-opacity:1"
       id="path10532"
       inkscape:connector-curvature="0" />
    <path
       d="m 16.351297,24.017886 0.05962,-0.913695 0.178858,-0.898172 0.294217,-0.866775 0.404989,-0.821267 0.508705,-0.761294 0.603603,-0.688622 0.688622,-0.603603 0.761294,-0.508706 0.821267,-0.404989 0.866775,-0.294216 0.898172,-0.178859 0.913695,-0.05997"
       style="fill:none;stroke:#100f0d;stroke-width:0.34995556;stroke-linecap:round;stroke-linejoin:round;stroke-miterlimit:10;stroke-dasharray:none;stroke-opacity:1"
       id="path10540"
       inkscape:connector-curvature="0" />
    <path
       d="m 129.35096,20.112353 -0.67804,0.05927 -0.65758,0.176388 -0.61701,0.287514 -0.55774,0.390525 -0.48119,0.481542 -0.39053,0.557742 -0.28786,0.617008 -0.17604,0.657578 -0.0593,0.678039 0.0593,0.678038 0.17604,0.657578 0.28786,0.617008 0.39053,0.557742 0.48119,0.481541 0.55774,0.390525 0.61701,0.287514 0.65758,0.176389 0.67804,0.05927 0.67839,-0.05927 0.65757,-0.176389 0.61701,-0.287514 0.55774,-0.390525 0.48119,-0.481541 0.39053,-0.557742 0.28787,-0.617008 0.17603,-0.657578 0.0593,-0.678038 -0.0593,-0.678039 -0.17603,-0.657578 -0.28787,-0.617008 -0.39053,-0.557742 -0.48119,-0.481542 -0.55774,-0.390525 -0.61701,-0.287514 -0.65757,-0.176388 -0.67839,-0.05927"
       style="fill:none;stroke:#100f0d;stroke-width:0.34995556;stroke-linecap:round;stroke-linejoin:round;stroke-miterlimit:10;stroke-dasharray:none;stroke-opacity:1"
       id="path10544"
       inkscape:connector-curvature="0" />
    <path
       d="M 129.35096,137.01789 H 23.351115"
       style="fill:none;stroke:#100f0d;stroke-width:0.34995556;stroke-linecap:round;stroke-linejoin:round;stroke-miterlimit:10;stroke-dasharray:none;stroke-opacity:1"
       id="path10548"
       inkscape:connector-curvature="0" />
    <path
       d="m 23.351045,134.08162 0.705555,-0.0617 0.684389,-0.18274 0.642056,-0.29986 0.580319,-0.40605 0.500945,-0.50095 0.4064,-0.58067 0.299155,-0.6417 0.183445,-0.68439 0.06174,-0.70591 -0.06174,-0.70555 -0.183445,-0.68439 -0.299155,-0.64171 -0.4064,-0.58031 -0.500945,-0.50095 -0.580319,-0.4064 -0.642056,-0.29951 -0.684389,-0.18309 -0.705555,-0.0621 -0.705556,0.0621 -0.684389,0.18309 -0.642055,0.29951 -0.58032,0.4064 -0.500944,0.50095 -0.4064,0.58031 -0.299156,0.64171 -0.183444,0.68439 -0.06174,0.70555 0.06174,0.70591 0.183444,0.68439 0.299156,0.6417 0.4064,0.58067 0.500944,0.50095 0.58032,0.40605 0.642055,0.29986 0.684389,0.18274 0.705556,0.0617"
       style="fill:none;stroke:#100f0d;stroke-width:0.34995556;stroke-linecap:round;stroke-linejoin:round;stroke-miterlimit:10;stroke-dasharray:none;stroke-opacity:1"
       id="path10592"
       inkscape:connector-curvature="0" />
    <path
       d="m 129.35096,134.08162 -0.70556,-0.0617 -0.68439,-0.18274 -0.64205,-0.29986 -0.57997,-0.40605 -0.50095,-0.50095 -0.4064,-0.58067 -0.29951,-0.6417 -0.18344,-0.68439 -0.0617,-0.70591 0.0617,-0.70555 0.18344,-0.68439 0.29951,-0.64171 0.4064,-0.58031 0.50095,-0.50095 0.57997,-0.4064 0.64205,-0.29951 0.68439,-0.18309 0.70556,-0.0621 0.7059,0.0621 0.68404,0.18309 0.64206,0.29951 0.58031,0.4064 0.50095,0.50095 0.4064,0.58031 0.29951,0.64171 0.18309,0.68439 0.0617,0.70555 -0.0617,0.70591 -0.18309,0.68439 -0.29951,0.6417 -0.4064,0.58067 -0.50095,0.50095 -0.58031,0.40605 -0.64206,0.29986 -0.68404,0.18274 -0.7059,0.0617"
       style="fill:none;stroke:#100f0d;stroke-width:0.34995556;stroke-linecap:round;stroke-linejoin:round;stroke-miterlimit:10;stroke-dasharray:none;stroke-opacity:1"
       id="path10600"
       inkscape:connector-curvature="0" />
    <path
       d="m 23.351045,19.953886 0.705555,0.06174 0.684389,0.183444 0.642056,0.299156 0.580319,0.4064 0.500945,0.500944 0.4064,0.580319 0.299155,0.642056 0.183445,0.684389 0.06174,0.705555 -0.06174,0.705556 -0.183445,0.684389 -0.299155,0.642055 -0.4064,0.58032 -0.500945,0.500944 -0.580319,0.4064 -0.642056,0.299156 -0.684389,0.183444 -0.705555,0.06174 -0.705556,-0.06174 -0.684389,-0.183444 -0.642055,-0.299156 -0.58032,-0.4064 -0.500944,-0.500944 -0.4064,-0.58032 -0.299156,-0.642055 -0.183444,-0.684389 -0.06174,-0.705556 0.06174,-0.705555 0.183444,-0.684389 0.299156,-0.642056 0.4064,-0.580319 0.500944,-0.500944 0.58032,-0.4064 0.642055,-0.299156 0.684389,-0.183444 0.705556,-0.06174"
       style="fill:none;stroke:#100f0d;stroke-width:0.34995556;stroke-linecap:round;stroke-linejoin:round;stroke-miterlimit:10;stroke-dasharray:none;stroke-opacity:1"
       id="path10604"
       inkscape:connector-curvature="0" />
  </g>
</svg>
